<?xml version="1.0" encoding="UTF-8"?>
<svg viewBox="0 0 256 256" xmlns="http://www.w3.org/2000/svg" preserveAspectRatio="xMidYMid">
  <circle cx="128" cy="128" r="118" fill="#85ea2d"/>
  <path d="M80 110c-.4 4.5-.1 9.2-.1 13.8 0 4.1-.5 8.2-1.5 12.3-1.3 5.5-4.8 9.3-10.8 11.5 10.8 7 11.9 17.8 12.7 28.8.4 5.9.2 11.9.8 17.8.5 4.6 2.2 5.7 6.9 5.9 1.9.1 3.9 0 6.1 0v14.8c-14 2.4-25.5-1.6-28.3-13.4-1.5-6.2-1.8-12.5-1.7-13.2-.3-4.7.2-9.4-.2-14.1-1-12.9-2.7-17.3-15.1-17.9v-16.1c.9-.3 1.8-.5 2.7-.5 6.8-.4 9.7-2.4 11.2-9.1 1-4 1.3-8.1 1.3-11.4.5-7.4.8-14.9 1.6-22.2 1.8-10.5 8.3-15.6 19.1-16.2 3-.1 6.1 0 9.6 0v14.4c-1.5.1-2.7.3-4.1.3-3.9-.4-4.8 2.6-5.5 7.9zm16.9 33.3h-.4c-5.2 0-9.3 4.1-9.3 9.3 0 5.1 4.2 9.3 9.4 9.2 5.1 0 9.3-4.2 9.2-9.4 0-5-4.1-9.1-9-9.1zm31.9 0c-5.3-.1-9.6 4.1-9.7 9.4 0 5.2 4.2 9.6 9.5 9.6 5.1.8 9.6-3.7 9.6-9.3s-4.2-9.6-9.4-9.7zm32.7 0c-5.4 0-9.8 4.4-9.8 9.8s4.4 9.8 9.8 9.7c4.7.8 9.4-3.7 9.7-9.1.3-5.3-4.2-9.9-9.7-10.4zm44.8.8c-5.9-.3-8.8-2.2-10.3-7.8-1.1-3.4-1.7-6.9-1.7-10.9-.4-6.8-.4-13.6-.8-20.5-1.1-16.1-12.7-21.7-29.7-19v14c2.7 0 4.8 0 6.9.1 3.6.1 6.3 1.4 6.7 5.4.4 3.7.4 7.4.7 11.1.7 7.4 1.1 14.8 2.4 22.1 1.1 5.9 5 10.3 10.9 12.7-9 6-11.6 14.7-12.1 24.4-.3 6.6-.4 13.3-.8 20-.3 6.1-2.4 8.1-8.6 8.2-1.7.1-3.4.2-5.3.3v14.4c3.6 0 6.9.2 10.2 0 10.2-.6 16.4-5.6 18.5-15.5 1.1-4.8 1.5-9.6 1.8-14.4.4-5.1.3-10.2.8-15.2.8-7.9 4.4-11.1 12.2-11.6.7-.1 1.5-.3 2.2-.5v-16.1c-1.3-.2-2.2-.3-3.2-.4z" fill="#173647"/>
</svg>
