<svg id="my-svg" width="100%" xmlns="http://www.w3.org/2000/svg" xmlns:xlink="http://www.w3.org/1999/xlink" style="max-width: 1102.27px; background-color: transparent;" viewBox="-144.265625 -35.70000076293945 1102.265625 475.20001220703125" role="graphics-document document" aria-roledescription="gitGraph"><style>#my-svg{font-family:"trebuchet ms",verdana,arial,sans-serif;font-size:16px;fill:#ccc;}@keyframes edge-animation-frame{from{stroke-dashoffset:0;}}@keyframes dash{to{stroke-dashoffset:0;}}#my-svg .edge-animation-slow{stroke-dasharray:9,5!important;stroke-dashoffset:900;animation:dash 50s linear infinite;stroke-linecap:round;}#my-svg .edge-animation-fast{stroke-dasharray:9,5!important;stroke-dashoffset:900;animation:dash 20s linear infinite;stroke-linecap:round;}#my-svg .error-icon{fill:#a44141;}#my-svg .error-text{fill:#ddd;stroke:#ddd;}#my-svg .edge-thickness-normal{stroke-width:1px;}#my-svg .edge-thickness-thick{stroke-width:3.5px;}#my-svg .edge-pattern-solid{stroke-dasharray:0;}#my-svg .edge-thickness-invisible{stroke-width:0;fill:none;}#my-svg .edge-pattern-dashed{stroke-dasharray:3;}#my-svg .edge-pattern-dotted{stroke-dasharray:2;}#my-svg .marker{fill:#4a90e2;stroke:#4a90e2;}#my-svg .marker.cross{stroke:#4a90e2;}#my-svg svg{font-family:"trebuchet ms",verdana,arial,sans-serif;font-size:16px;}#my-svg p{margin:0;}#my-svg .commit-id,#my-svg .commit-msg,#my-svg .branch-label{fill:lightgrey;color:lightgrey;font-family:'trebuchet ms',verdana,arial,sans-serif;font-family:var(--mermaid-font-family);}#my-svg .branch-label0{fill:#2c2c2c;}#my-svg .commit0{stroke:#4a5568;fill:#4a5568;}#my-svg .commit-highlight0{stroke:rgb(192.1666666667, 192.1666666667, 143.8333333334);fill:rgb(192.1666666667, 192.1666666667, 143.8333333334);}#my-svg .label0{fill:#4a5568;}#my-svg .arrow0{stroke:#4a5568;}#my-svg .branch-label1{fill:lightgrey;}#my-svg .commit1{stroke:#e91e8c;fill:#e91e8c;}#my-svg .commit-highlight1{stroke:rgb(93.5483870969, 221.4516129033, 139.677419355);fill:rgb(93.5483870969, 221.4516129033, 139.677419355);}#my-svg .label1{fill:#e91e8c;}#my-svg .arrow1{stroke:#e91e8c;}#my-svg .branch-label2{fill:lightgrey;}#my-svg .commit2{stroke:#5a9fd4;fill:#5a9fd4;}#my-svg .commit-highlight2{stroke:rgb(149.4437086091, 117.6092715231, 107.5562913906);fill:rgb(149.4437086091, 117.6092715231, 107.5562913906);}#my-svg .label2{fill:#5a9fd4;}#my-svg .arrow2{stroke:#5a9fd4;}#my-svg .branch-label3{fill:#2c2c2c;}#my-svg .commit3{stroke:#c87137;fill:#c87137;}#my-svg .commit-highlight3{stroke:rgb(99.9811320754, 162.7735849057, 202.0188679245);fill:rgb(99.9811320754, 162.7735849057, 202.0188679245);}#my-svg .label3{fill:#c87137;}#my-svg .arrow3{stroke:#c87137;}#my-svg .branch-label4{fill:lightgrey;}#my-svg .commit4{stroke:#cc3333;fill:#cc3333;}#my-svg .commit-highlight4{stroke:rgb(51.5000000001, 236.5, 236.5);fill:rgb(51.5000000001, 236.5, 236.5);}#my-svg .label4{fill:#cc3333;}#my-svg .arrow4{stroke:#cc3333;}#my-svg .branch-label5{fill:lightgrey;}#my-svg .commit5{stroke:#7b2d8e;fill:#7b2d8e;}#my-svg .commit-highlight5{stroke:rgb(154.2083333334, 255, 132.0000000001);fill:rgb(154.2083333334, 255, 132.0000000001);}#my-svg .label5{fill:#7b2d8e;}#my-svg .arrow5{stroke:#7b2d8e;}#my-svg .branch-label6{fill:lightgrey;}#my-svg .commit6{stroke:#cc8800;fill:#cc8800;}#my-svg .commit-highlight6{stroke:rgb(51.331168831, 135.1948051946, 253.6688311688);fill:rgb(51.331168831, 135.1948051946, 253.6688311688);}#my-svg .label6{fill:#cc8800;}#my-svg .arrow6{stroke:#cc8800;}#my-svg .branch-label7{fill:lightgrey;}#my-svg .commit7{stroke:#2d8e4e;fill:#2d8e4e;}#my-svg .commit-highlight7{stroke:rgb(206.1818181817, 89.948051948, 241.051948052);fill:rgb(206.1818181817, 89.948051948, 241.051948052);}#my-svg .label7{fill:#2d8e4e;}#my-svg .arrow7{stroke:#2d8e4e;}#my-svg .branch{stroke-width:1;stroke:#4a90e2;stroke-dasharray:2;}#my-svg .commit-label{font-size:12px;fill:rgb(183.8476190475, 181.5523809523, 181.5523809523);}#my-svg .commit-label-bkg{font-size:12px;fill:#1a1a2e;opacity:0.5;}#my-svg .tag-label{font-size:11px;fill:#fff;}#my-svg .tag-label-bkg{fill:#0f3460;stroke:#4a90e2;}#my-svg .tag-hole{fill:#ccc;}#my-svg .commit-merge{stroke:#0f3460;fill:#0f3460;}#my-svg .commit-reverse{stroke:#0f3460;fill:#0f3460;stroke-width:3;}#my-svg .commit-highlight-inner{stroke:#0f3460;fill:#0f3460;}#my-svg .arrow{stroke-width:8;stroke-linecap:round;fill:none;}#my-svg .gitTitleText{text-anchor:middle;font-size:18px;fill:#ccc;}#my-svg :root{--mermaid-font-family:"trebuchet ms",verdana,arial,sans-serif;}</style><g/><g class="commit-bullets"/><g class="commit-labels"/><g><line x1="0" y1="0" x2="950" y2="0" class="branch branch0"/><rect class="branchLabelBkg label0" rx="4" ry="4" x="-43.984375" y="-1.5" width="57.984375" height="23" transform="translate(-19, -9.5)"/><g class="branchLabel"><g class="label branch-label0" transform="translate(-53.984375, -10.5)"><text><tspan xml:space="preserve" dy="1em" x="0" class="row">main</tspan></text></g></g><line x1="0" y1="50" x2="950" y2="50" class="branch branch1"/><rect class="branchLabelBkg label1" rx="4" ry="4" x="-67.703125" y="-1.5" width="81.703125" height="23" transform="translate(-19, 40.5)"/><g class="branchLabel"><g class="label branch-label1" transform="translate(-77.703125, 39.5)"><text><tspan xml:space="preserve" dy="1em" x="0" class="row">develop</tspan></text></g></g><line x1="0" y1="100" x2="950" y2="100" class="branch branch2"/><rect class="branchLabelBkg label2" rx="4" ry="4" x="-77.375" y="-1.5" width="91.375" height="23" transform="translate(-19, 90.5)"/><g class="branchLabel"><g class="label branch-label2" transform="translate(-87.375, 89.5)"><text><tspan xml:space="preserve" dy="1em" x="0" class="row">feat/dept</tspan></text></g></g><line x1="0" y1="150" x2="950" y2="150" class="branch branch3"/><rect class="branchLabelBkg label3" rx="4" ry="4" x="-80.984375" y="-1.5" width="94.984375" height="23" transform="translate(-19, 140.5)"/><g class="branchLabel"><g class="label branch-label3" transform="translate(-90.984375, 139.5)"><text><tspan xml:space="preserve" dy="1em" x="0" class="row">feat/empl</tspan></text></g></g><line x1="0" y1="200" x2="950" y2="200" class="branch branch4"/><rect class="branchLabelBkg label4" rx="4" ry="4" x="-117.265625" y="-1.5" width="131.265625" height="23" transform="translate(-19, 190.5)"/><g class="branchLabel"><g class="label branch-label4" transform="translate(-127.265625, 189.5)"><text><tspan xml:space="preserve" dy="1em" x="0" class="row">feat/onboard1</tspan></text></g></g><line x1="0" y1="250" x2="950" y2="250" class="branch branch5"/><rect class="branchLabelBkg label5" rx="4" ry="4" x="-117.265625" y="-1.5" width="131.265625" height="23" transform="translate(-19, 240.5)"/><g class="branchLabel"><g class="label branch-label5" transform="translate(-127.265625, 239.5)"><text><tspan xml:space="preserve" dy="1em" x="0" class="row">feat/onboard2</tspan></text></g></g><line x1="0" y1="300" x2="950" y2="300" class="branch branch6"/><rect class="branchLabelBkg label6" rx="4" ry="4" x="-104.8125" y="-1.5" width="118.8125" height="23" transform="translate(-19, 290.5)"/><g class="branchLabel"><g class="label branch-label6" transform="translate(-114.8125, 289.5)"><text><tspan xml:space="preserve" dy="1em" x="0" class="row">feat/projects</tspan></text></g></g><line x1="0" y1="350" x2="950" y2="350" class="branch branch7"/><rect class="branchLabelBkg label7" rx="4" ry="4" x="-93.1875" y="-1.5" width="107.1875" height="23" transform="translate(-19, 340.5)"/><g class="branchLabel"><g class="label branch-label7" transform="translate(-103.1875, 339.5)"><text><tspan xml:space="preserve" dy="1em" x="0" class="row">release/1.0</tspan></text></g></g><line x1="0" y1="400" x2="950" y2="400" class="branch branch0"/><rect class="branchLabelBkg label0" rx="4" ry="4" x="-93.1875" y="-1.5" width="107.1875" height="23" transform="translate(-19, 390.5)"/><g class="branchLabel"><g class="label branch-label0" transform="translate(-103.1875, 389.5)"><text><tspan xml:space="preserve" dy="1em" x="0" class="row">release/1.3</tspan></text></g></g></g><g class="commit-arrows"><path d="M 10 0 L 60 0" class="arrow arrow0"/><path d="M 60 0 L 60 30 A 20 20, 0, 0, 0, 80 50 L 110 50" class="arrow arrow1"/><path d="M 110 50 L 110 80 A 20 20, 0, 0, 0, 130 100 L 160 100" class="arrow arrow2"/><path d="M 160 100 L 210 100" class="arrow arrow2"/><path d="M 110 50 L 260 50" class="arrow arrow1"/><path d="M 210 100 L 240 100 A 20 20, 0, 0, 0, 260 80 L 260 50" class="arrow arrow2"/><path d="M 260 50 L 260 130 A 20 20, 0, 0, 0, 280 150 L 310 150" class="arrow arrow3"/><path d="M 310 150 L 360 150" class="arrow arrow3"/><path d="M 260 50 L 410 50" class="arrow arrow1"/><path d="M 360 150 L 390 150 A 20 20, 0, 0, 0, 410 130 L 410 50" class="arrow arrow3"/><path d="M 410 50 L 410 180 A 20 20, 0, 0, 0, 430 200 L 460 200" class="arrow arrow4"/><path d="M 410 50 L 510 50" class="arrow arrow1"/><path d="M 460 200 L 490 200 A 20 20, 0, 0, 0, 510 180 L 510 50" class="arrow arrow4"/><path d="M 510 50 L 510 230 A 20 20, 0, 0, 0, 530 250 L 560 250" class="arrow arrow5"/><path d="M 510 50 L 610 50" class="arrow arrow1"/><path d="M 560 250 L 590 250 A 20 20, 0, 0, 0, 610 230 L 610 50" class="arrow arrow5"/><path d="M 610 50 L 610 280 A 20 20, 0, 0, 0, 630 300 L 660 300" class="arrow arrow6"/><path d="M 610 50 L 710 50" class="arrow arrow1"/><path d="M 660 300 L 690 300 A 20 20, 0, 0, 0, 710 280 L 710 50" class="arrow arrow6"/><path d="M 710 50 L 710 330 A 20 20, 0, 0, 0, 730 350 L 760 350" class="arrow arrow7"/><path d="M 60 0 L 810 0" class="arrow arrow0"/><path d="M 760 350 L 790 350 A 20 20, 0, 0, 0, 810 330 L 810 0" class="arrow arrow7"/><path d="M 710 50 L 710 380 A 20 20, 0, 0, 0, 730 400 L 860 400" class="arrow arrow0"/><path d="M 810 0 L 910 0" class="arrow arrow0"/><path d="M 860 400 L 890 400 A 20 20, 0, 0, 0, 910 380 L 910 0" class="arrow arrow0"/></g><g class="commit-bullets"><circle cx="10" cy="0" r="10" class="commit Init commit0"/><circle cx="60" cy="0" r="10" class="commit AGENTS commit0"/><circle cx="110" cy="50" r="10" class="commit ADRs commit1"/><circle cx="160" cy="100" r="10" class="commit Dept CRUD commit2"/><circle cx="210" cy="100" r="10" class="commit Dept Tests commit2"/><circle cx="260" cy="50" r="9" class="commit 5-aec2f7d commit1"/><circle cx="260" cy="50" r="6" class="commit commit-merge 5-aec2f7d commit1"/><circle cx="310" cy="150" r="10" class="commit Empl CRUD commit3"/><circle cx="360" cy="150" r="10" class="commit Empl Tests commit3"/><circle cx="410" cy="50" r="9" class="commit 8-461c184 commit1"/><circle cx="410" cy="50" r="6" class="commit commit-merge 8-461c184 commit1"/><circle cx="460" cy="200" r="10" class="commit Templates commit4"/><circle cx="510" cy="50" r="9" class="commit 10-db4536f commit1"/><circle cx="510" cy="50" r="6" class="commit commit-merge 10-db4536f commit1"/><circle cx="560" cy="250" r="10" class="commit Processes commit5"/><circle cx="610" cy="50" r="9" class="commit 12-524172f commit1"/><circle cx="610" cy="50" r="6" class="commit commit-merge 12-524172f commit1"/><circle cx="660" cy="300" r="10" class="commit Projects commit6"/><circle cx="710" cy="50" r="9" class="commit 14-bd0fa15 commit1"/><circle cx="710" cy="50" r="6" class="commit commit-merge 14-bd0fa15 commit1"/><circle cx="760" cy="350" r="10" class="commit v1.0.0 commit7"/><circle cx="810" cy="0" r="9" class="commit 16-298a327 commit0"/><circle cx="810" cy="0" r="6" class="commit commit-merge 16-298a327 commit0"/><circle cx="860" cy="400" r="10" class="commit v1.3.0 commit0"/><circle cx="910" cy="0" r="9" class="commit 18-81b991e commit0"/><circle cx="910" cy="0" r="6" class="commit commit-merge 18-81b991e commit0"/></g><g class="commit-labels"><g><rect class="commit-label-bkg" x="-1.7392578125" y="13.5" width="23.478515625" height="18"/><text x="0.2607421875" y="25" class="commit-label">Init</text></g><g><rect class="commit-label-bkg" x="33.59375" y="13.5" width="52.8125" height="18"/><text x="35.59375" y="25" class="commit-label">AGENTS</text></g><g><rect class="commit-label-bkg" x="91.9765625" y="63.5" width="36.046875" height="18"/><text x="93.9765625" y="75" class="commit-label">ADRs</text></g><g><rect class="commit-label-bkg" x="124.25" y="113.5" width="71.5" height="18"/><text x="126.25" y="125" class="commit-label">Dept CRUD</text></g><g><rect class="commit-label-bkg" x="176.671875" y="113.5" width="66.65625" height="18"/><text x="178.671875" y="125" class="commit-label">Dept Tests</text></g><polygon class="tag-label-bkg" points="232.75,32.8  &#10;      232.75,28.8&#10;      240.75,22.3&#10;      279.25,22.3&#10;      279.25,39.3&#10;      240.75,39.3"/><circle cy="30.8" cx="236.75" r="1.5" class="tag-hole"/><text y="34" class="tag-label" x="244.75">PR#1</text><g><rect class="commit-label-bkg" x="273.609375" y="163.5" width="72.78125" height="18"/><text x="275.609375" y="175" class="commit-label">Empl CRUD</text></g><g><rect class="commit-label-bkg" x="326.0390625" y="163.5" width="67.921875" height="18"/><text x="328.0390625" y="175" class="commit-label">Empl Tests</text></g><polygon class="tag-label-bkg" points="382.75,32.8  &#10;      382.75,28.8&#10;      390.75,22.3&#10;      429.25,22.3&#10;      429.25,39.3&#10;      390.75,39.3"/><circle cy="30.8" cx="386.75" r="1.5" class="tag-hole"/><text y="34" class="tag-label" x="394.75">PR#2</text><g><rect class="commit-label-bkg" x="426.9921875" y="213.5" width="66.015625" height="18"/><text x="428.9921875" y="225" class="commit-label">Templates</text></g><polygon class="tag-label-bkg" points="479.25,32.8  &#10;      479.25,28.8&#10;      487.25,22.3&#10;      532.75,22.3&#10;      532.75,39.3&#10;      487.25,39.3"/><circle cy="30.8" cx="483.25" r="1.5" class="tag-hole"/><text y="34" class="tag-label" x="491.25">PR#30</text><g><rect class="commit-label-bkg" x="528.421875" y="263.5" width="63.15625" height="18"/><text x="530.421875" y="275" class="commit-label">Processes</text></g><polygon class="tag-label-bkg" points="579.25,32.8  &#10;      579.25,28.8&#10;      587.25,22.3&#10;      632.75,22.3&#10;      632.75,39.3&#10;      587.25,39.3"/><circle cy="30.8" cx="583.25" r="1.5" class="tag-hole"/><text y="34" class="tag-label" x="591.25">PR#32</text><g><rect class="commit-label-bkg" x="634.34375" y="313.5" width="51.3125" height="18"/><text x="636.34375" y="325" class="commit-label">Projects</text></g><polygon class="tag-label-bkg" points="679.25,32.8  &#10;      679.25,28.8&#10;      687.25,22.3&#10;      732.75,22.3&#10;      732.75,39.3&#10;      687.25,39.3"/><circle cy="30.8" cx="683.25" r="1.5" class="tag-hole"/><text y="34" class="tag-label" x="691.25">PR#61</text><g><rect class="commit-label-bkg" x="739.1796875" y="363.5" width="41.640625" height="18"/><text x="741.1796875" y="375" class="commit-label">v1.0.0</text></g><polygon class="tag-label-bkg" points="780.75,-17.2  &#10;      780.75,-21.2&#10;      788.75,-27.7&#10;      831.25,-27.7&#10;      831.25,-10.7&#10;      788.75,-10.7"/><circle cy="-19.2" cx="784.75" r="1.5" class="tag-hole"/><text y="-16" class="tag-label" x="792.75">v1.0.0</text><g><rect class="commit-label-bkg" x="839.1796875" y="413.5" width="41.640625" height="18"/><text x="841.1796875" y="425" class="commit-label">v1.3.0</text></g><polygon class="tag-label-bkg" points="880.75,-17.2  &#10;      880.75,-21.2&#10;      888.75,-27.7&#10;      931.25,-27.7&#10;      931.25,-10.7&#10;      888.75,-10.7"/><circle cy="-19.2" cx="884.75" r="1.5" class="tag-hole"/><text y="-16" class="tag-label" x="892.75">v1.3.0</text></g></svg>